HIERARCHY
ROOT Hips
{
 OFFSET 0.000000 0.000000 0.000000
 CHANNELS 6 Xposition Yposition Zposition Yrotation Xrotation Zrotation
 JOINT Chest
 {
  OFFSET 0.000000 9.585900 0.002600
  CHANNELS 3 Yrotation Xrotation Zrotation
  JOINT Chest2
  {
   OFFSET 0.000000 9.601200 -0.005300
   CHANNELS 3 Yrotation Xrotation Zrotation
   JOINT Chest3
   {
    OFFSET 0.000000 9.561800 0.000000
    CHANNELS 3 Yrotation Xrotation Zrotation
    JOINT Chest4
    {
     OFFSET 0.000000 9.552100 0.000000
     CHANNELS 3 Yrotation Xrotation Zrotation
     JOINT Neck
     {
      OFFSET 0.000000 14.453000 0.000000
      CHANNELS 3 Yrotation Xrotation Zrotation
      JOINT Head
      {
       OFFSET 0.000000 8.936500 -0.011300
       CHANNELS 3 Yrotation Xrotation Zrotation
       End Site
       {
        OFFSET 0.000000 17.073600 -0.006000
       }
      }
     }
     JOINT RightCollar
     {
      OFFSET -2.921100 9.558500 0.000000
      CHANNELS 3 Yrotation Xrotation Zrotation
      JOINT RightShoulder
      {
       OFFSET -13.519700 0.000000 0.000000
       CHANNELS 3 Yrotation Xrotation Zrotation
       JOINT RightElbow
       {
        OFFSET 0.000000 -29.696600 0.000000
        CHANNELS 3 Yrotation Xrotation Zrotation
        JOINT RightWrist
        {
         OFFSET 0.000000 -24.004700 0.000000
         CHANNELS 3 Yrotation Xrotation Zrotation
         End Site
         {
          OFFSET 0.000000 -17.728500 0.000000
         }
        }
       }
      }
     }
     JOINT LeftCollar
     {
      OFFSET 2.921100 9.558500 0.000000
      CHANNELS 3 Yrotation Xrotation Zrotation
      JOINT LeftShoulder
      {
       OFFSET 13.519700 0.000000 0.000000
       CHANNELS 3 Yrotation Xrotation Zrotation
       JOINT LeftElbow
       {
        OFFSET 0.000000 -29.696600 0.000000
        CHANNELS 3 Yrotation Xrotation Zrotation
        JOINT LeftWrist
        {
         OFFSET 0.000000 -24.004700 0.000000
         CHANNELS 3 Yrotation Xrotation Zrotation
         End Site
         {
          OFFSET 0.000000 -17.728500 0.000000
         }
        }
       }
      }
     }
    }
   }
  }
 }
 JOINT RightHip
 {
  OFFSET -7.771700 -0.012900 -0.001300
  CHANNELS 3 Yrotation Xrotation Zrotation
  JOINT RightKnee
  {
   OFFSET 0.000000 -40.869800 0.001200
   CHANNELS 3 Yrotation Xrotation Zrotation
   JOINT RightAnkle
   {
    OFFSET 0.000000 -39.717900 0.002100
    CHANNELS 3 Yrotation Xrotation Zrotation
    JOINT RightToe
    {
     OFFSET 0.000000 -4.965400 11.033500
     CHANNELS 3 Yrotation Xrotation Zrotation
     End Site
     {
      OFFSET 0.000000 -1.423100 5.872300
     }
    }
   }
  }
 }
 JOINT LeftHip
 {
  OFFSET 7.771700 -0.012900 -0.001300
  CHANNELS 3 Yrotation Xrotation Zrotation
  JOINT LeftKnee
  {
   OFFSET 0.000000 -40.869800 0.001200
   CHANNELS 3 Yrotation Xrotation Zrotation
   JOINT LeftAnkle
   {
    OFFSET 0.000000 -39.717900 0.002100
    CHANNELS 3 Yrotation Xrotation Zrotation
    JOINT LeftToe
    {
     OFFSET 0.000000 -4.965400 11.033500
     CHANNELS 3 Yrotation Xrotation Zrotation
     End Site
     {
      OFFSET 0.000000 -1.423100 5.872300
     }
    }
   }
  }
 }
}
MOTION
Frames: 11
Frame Time: 0.008333
0.000000 85.388000 0.000000 0.000000 -5.767877 0.000000 0.000000 11.653817 0.000000 0.000000 -5.885947 0.000000 0.000000 -0.000000 0.000000 0.000000 -0.000000 0.000000 0.000000 12.528835 0.000000 0.000000 0.711642 0.000000 0.000000 -0.000000 0.000000 0.000000 0.000000 -90.000000 0.000000 -2.309062 0.000000 0.000000 2.309062 0.000000 0.000000 -0.000000 0.000000 0.000000 -0.000000 90.000000 0.000000 -2.309062 0.000000 0.000000 2.309062 0.000000 0.000000 8.520406 0.000000 0.000000 1.905762 0.000000 -0.000000 -4.658285 0.000000 0.000000 -0.000000 0.000000 0.000000 8.520406 0.000000 0.000000 1.905762 0.000000 -0.000000 -4.658285 0.000000 0.000000 -0.000000 0.000000
-250.794023 56.262258 152.524076 179.419559 -46.109074 0.445592 1.733643 21.829068 3.621122 0.177404 3.024741 0.535357 0.260091 4.931308 0.896634 1.510813 18.464537 3.546450 1.414062 19.302385 -2.371261 3.318169 0.145241 -4.771932 -0.546665 1.792529 -1.173804 -1.696726 -20.110191 -3.574406 132.945137 -44.558548 -132.736060 16.288733 -14.756271 -48.631879 -5.568853 2.470374 -0.947166 37.428876 -8.932902 -2.053067 -156.527691 -44.317511 157.101749 -8.715886 -16.725781 32.932502 9.302581 -29.766316 -9.351187 -13.138177 63.355637 -14.717754 5.593643 27.766813 5.164197 -0.602312 -13.407359 6.588214 -9.809957 -29.238596 -1.347984 30.717426 64.669939 27.909939 -14.672459 11.088519 -5.039439 0.413394 0.377341 0.218785
-250.788608 56.262549 152.516423 179.422662 -46.060358 0.431659 1.724598 21.787264 3.633223 0.163207 3.030968 0.542120 0.264293 4.930201 0.892426 1.473762 18.476758 3.558676 1.436979 19.288257 -2.396517 3.329459 0.129481 -4.767642 -0.548132 1.788028 -1.202967 -1.708649 -20.093174 -3.576957 132.990173 -44.541777 -132.765015 16.309568 -14.745467 -48.639822 -5.591702 2.462795 -0.996982 37.425961 -8.956700 -2.056831 -156.543257 -44.296600 157.101167 -8.760828 -16.709757 32.973721 9.285712 -29.787605 -9.335395 -13.121891 63.375342 -14.715834 5.547595 27.565626 5.207282 -0.587834 -13.262013 6.533873 -9.878061 -29.293645 -1.287312 30.719805 64.698748 27.871437 -14.664663 11.085829 -5.061308 0.425143 0.367091 0.232928
-250.782333 56.274863 152.497489 179.536617 -46.094711 0.339623 1.645949 21.823550 3.645315 0.158444 3.034076 0.544237 0.257781 4.933625 0.894417 1.477957 18.471912 3.554167 1.410303 19.295846 -2.361407 3.359518 0.113836 -4.803368 -0.561818 1.789084 -1.204652 -1.753567 -20.063761 -3.574030 133.070484 -44.526660 -132.810796 16.351833 -14.715230 -48.656023 -5.605608 2.461883 -1.007490 37.369385 -8.970209 -2.053458 -156.526117 -44.288978 157.100584 -8.706426 -16.763414 32.972310 9.172337 -29.676572 -9.278879 -13.087418 63.396043 -14.721990 5.452859 27.191664 5.254631 -0.557488 -12.994202 6.476051 -9.989842 -29.262412 -1.262098 30.696760 64.721602 27.831593 -14.646268 11.092742 -5.072532 0.420307 0.337243 0.229458
-250.776089 56.286948 152.480551 179.623227 -46.108258 0.273916 1.573997 21.846524 3.648374 0.138481 3.046434 0.547034 0.285122 4.915550 0.887604 1.450450 18.483317 3.565627 1.424280 19.286725 -2.377627 3.369429 0.105337 -4.797196 -0.538532 1.777782 -1.227385 -1.812306 -20.030379 -3.568295 133.003804 -44.517026 -132.786837 16.311349 -14.781689 -48.660402 -5.599122 2.448685 -1.034001 37.353422 -8.978416 -2.050414 -156.569894 -44.279076 157.119417 -8.738310 -16.747992 32.994513 9.097947 -29.599973 -9.247849 -13.051211 63.443141 -14.718858 5.367331 26.853162 5.330947 -0.530220 -12.770361 6.397288 -10.082771 -29.251567 -1.239554 30.671008 64.743940 27.788207 -14.627876 11.099951 -5.084191 0.408169 0.305861 0.224804
-250.764492 56.297055 152.468936 179.681893 -46.086101 0.202736 1.517927 21.844573 3.672028 0.146640 3.039932 0.546687 0.281656 4.914138 0.886453 1.435223 18.485191 3.564540 1.443694 19.278968 -2.385550 3.379820 0.097451 -4.794486 -0.539765 1.775867 -1.239164 -1.808784 -20.022310 -3.568584 132.981490 -44.515933 -132.779373 16.294113 -14.815793 -48.663230 -5.621003 2.439260 -1.054733 37.368193 -8.990021 -2.046261 -156.641474 -44.262131 157.150296 -8.740781 -16.760340 33.004337 9.038271 -29.570114 -9.200021 -13.034439 63.483233 -14.727991 5.313034 26.594887 5.436148 -0.515880 -12.619327 6.300618 -10.209466 -29.273337 -1.156009 30.658805 64.772351 27.727414 -14.608606 11.100579 -5.105457 0.407734 0.279402 0.227511
-250.743197 56.309256 152.460244 179.716417 -46.062563 0.096910 1.522351 21.822128 3.757747 0.136613 3.047991 0.548841 0.255945 4.928903 0.891644 1.433172 18.474356 3.556757 1.454653 19.271928 -2.386786 3.398212 0.091602 -4.814065 -0.531713 1.771381 -1.252028 -1.810835 -20.010548 -3.569206 132.929238 -44.527128 -132.760261 16.292608 -14.840953 -48.674401 -5.682589 2.419128 -1.079732 37.312620 -9.018710 -2.028874 -156.563338 -44.257255 157.150987 -8.730592 -16.781687 33.003347 8.967527 -29.548614 -9.093974 -13.041819 63.522421 -14.758460 5.318050 26.366571 5.566030 -0.542044 -12.487043 6.202196 -10.354880 -29.285588 -1.012483 30.649789 64.798152 27.666337 -14.532072 11.116949 -5.095364 0.350791 0.223327 0.197788
-250.725873 56.322397 152.456648 179.735437 -46.029250 0.030505 1.512998 21.803640 3.810831 0.130640 3.048652 0.549633 0.246895 4.934482 0.893296 1.428548 18.473277 3.554961 1.464597 19.263520 -2.387565 3.417192 0.076869 -4.818647 -0.529151 1.760549 -1.267410 -1.881570 -19.952256 -3.561649 132.986483 -44.521273 -132.809872 16.321368 -14.830422 -48.707239 -5.720757 2.394283 -1.104707 37.291786 -9.043294 -2.014803 -156.548673 -44.249460 157.156522 -8.737695 -16.791123 33.009234 8.927661 -29.528774 -9.021790 -13.042288 63.561220 -14.776249 5.288299 26.162594 5.655621 -0.547006 -12.374217 6.128471 -10.478005 -29.314808 -0.901178 30.650871 64.823660 27.614873 -14.491935 11.129559 -5.097613 0.326530 0.186222 0.183958
-250.707068 56.336868 152.458210 179.732636 -45.991748 -0.026782 1.493046 21.798068 3.864376 0.149830 3.033579 0.546013 0.257104 4.927549 0.890619 1.405307 18.483908 3.558199 1.453179 19.265361 -2.367945 3.457236 0.054442 -4.850173 -0.525154 1.748435 -1.280831 -1.863609 -19.948488 -3.566731 132.927810 -44.540776 -132.788635 16.335537 -14.827006 -48.724239 -5.744207 2.370955 -1.126903 37.325927 -9.049000 -2.008942 -156.609557 -44.224353 157.173732 -8.743623 -16.800708 33.020151 8.905159 -29.508603 -8.943045 -13.010610 63.603138 -14.753708 5.224596 25.967961 5.736761 -0.532410 -12.288869 6.048246 -10.587324 -29.341422 -0.785860 30.677953 64.834373 27.585716 -14.451343 11.135946 -5.088520 0.290824 0.164590 0.167420
-250.682568 56.354537 152.462840 179.700679 -45.968659 -0.097935 1.529734 21.792104 3.957105 0.165647 3.019158 0.546078 0.248423 4.932137 0.891722 1.375215 18.495337 3.560150 1.478466 19.254357 -2.379780 3.471438 0.044231 -4.841977 -0.552318 1.746084 -1.299437 -1.855716 -19.927046 -3.560035 132.963320 -44.538929 -132.817383 16.348473 -14.822266 -48.734108 -5.760424 2.346187 -1.147532 37.224539 -9.095641 -1.993354 -156.466742 -44.244441 157.144554 -8.719949 -16.840194 33.021110 8.887504 -29.474826 -8.820222 -12.970650 63.648126 -14.714435 5.163996 25.777485 5.819349 -0.528563 -12.237301 5.965984 -10.753129 -29.349548 -0.620560 30.783300 64.837796 27.589424 -14.352218 11.165863 -5.039868 0.201900 0.134742 0.123981
-250.663356 56.370363 152.474459 179.681749 -45.920998 -0.151509 1.546199 21.763919 4.017286 0.164834 3.019681 0.549503 0.244920 4.933703 0.891891 1.330123 18.516598 3.556825 1.528628 19.222931 -2.398165 3.485369 0.032857 -4.815035 -0.543586 1.717337 -1.321522 -1.907464 -19.870691 -3.545682 133.112900 -44.508364 -132.904407 16.371948 -14.791019 -48.749336 -5.753624 2.299113 -1.170293 37.167192 -9.127638 -1.978544 -156.376285 -44.255291 157.130824 -8.695818 -16.881637 33.024070 8.880158 -29.458410 -8.729392 -12.950402 63.692566 -14.687822 5.088128 25.579584 5.869173 -0.513278 -12.216432 5.903932 -10.839080 -29.383079 -0.516581 30.764638 64.847266 27.551701 -14.302786 11.156114 -5.042132 0.169279 0.125108 0.101298
